<?xml version="1.0" standalone="no"?>
<!DOCTYPE svg PUBLIC "-//W3C//DTD SVG 20010904//EN"
 "http://www.w3.org/TR/2001/REC-SVG-20010904/DTD/svg10.dtd">
<svg version="1.0" xmlns="http://www.w3.org/2000/svg"
 width="800.000000pt" height="800.000000pt" viewBox="0 0 800.000000 800.000000"
 preserveAspectRatio="xMidYMid meet">

<g transform="translate(0.000000,800.000000) scale(0.100000,-0.100000)"
fill="#000000" stroke="none">
<path d="M4610 6640 c-15 -37 -33 -38 -49 -4 l-11 26 -36 -31 c-19 -17 -39
-31 -44 -31 -5 0 -23 -20 -39 -44 -36 -52 -164 -154 -287 -229 -49 -30 -206
-113 -349 -185 -143 -73 -313 -163 -378 -200 -84 -50 -124 -68 -142 -65 -19 4
-27 0 -36 -21 l-12 -26 -16 47 c-26 78 -60 64 -61 -24 0 -23 -11 -42 -40 -73
-34 -35 -42 -39 -60 -30 -41 22 -80 -27 -66 -83 4 -19 -8 -36 -67 -94 -82 -80
-169 -146 -355 -267 -276 -180 -696 -408 -751 -410 -15 0 -49 7 -77 16 -43 14
-56 14 -76 3 -21 -10 -29 -10 -49 1 -34 19 -46 17 -70 -10 -18 -21 -25 -23
-44 -14 -18 8 -33 6 -67 -10 -24 -11 -51 -22 -60 -25 -10 -4 -18 -14 -18 -23
0 -9 -8 -29 -17 -44 -14 -24 -15 -34 -5 -54 11 -24 10 -26 -16 -26 -53 0 -90
-49 -64 -86 16 -23 58 -44 89 -44 26 0 33 -4 33 -19 0 -26 51 -45 207 -76 156
-31 396 -95 404 -107 3 -5 48 -13 100 -19 143 -14 156 -18 182 -53 17 -22 26
-50 30 -97 l6 -67 -92 -32 c-51 -18 -128 -49 -171 -68 -44 -19 -104 -43 -133
-53 l-54 -18 3 32 c3 30 1 32 -29 35 l-33 3 0 -104 c0 -58 -3 -119 -6 -136 -6
-27 -4 -31 15 -31 15 0 21 -6 21 -21 0 -13 8 -23 21 -26 15 -4 19 -12 17 -31
-2 -21 -10 -28 -35 -33 -18 -3 -54 -20 -80 -37 -77 -49 -134 -72 -185 -72 -46
0 -54 4 -83 45 -21 30 -39 5 -40 -56 -1 -64 -23 -85 -98 -94 -71 -9 -125 7
-167 50 -19 19 -40 35 -47 35 -19 0 -16 -31 7 -65 14 -21 16 -33 8 -42 -7 -9
-7 -25 0 -53 l10 -40 -32 0 c-40 0 -69 -20 -65 -45 4 -16 12 -19 51 -16 55 3
105 -19 118 -53 7 -19 18 -24 68 -29 33 -4 172 -26 308 -51 137 -24 281 -47
319 -51 125 -11 125 -11 125 -55 0 -29 5 -42 20 -50 11 -6 20 -18 20 -26 0 -9
13 -28 29 -43 l29 -27 -10 -349 c-5 -193 -8 -407 -5 -476 l4 -126 -96 -17
c-53 -9 -130 -16 -171 -16 -41 0 -149 -7 -240 -15 -91 -8 -192 -16 -225 -17
l-60 -3 -8 -85 c-12 -131 -3 -148 79 -160 33 -5 452 -70 933 -144 l874 -136
409 38 408 39 930 -38 930 -39 213 94 c116 52 223 97 237 101 14 4 46 18 72
31 26 13 56 24 67 24 26 0 35 43 29 146 -3 60 -7 79 -23 90 -15 11 -71 14
-264 15 -135 1 -271 4 -301 7 l-55 7 -1 345 c0 322 1 346 18 358 27 20 22 37
-24 77 l-43 37 30 24 c17 13 35 24 42 24 21 0 24 19 8 49 -13 27 -13 31 1 45
8 9 18 16 20 16 8 0 198 -112 216 -128 15 -13 20 -12 44 7 15 12 40 21 56 21
19 0 40 10 59 29 33 34 36 49 12 57 -70 22 -95 54 -63 81 27 24 25 47 -6 72
-49 39 -91 18 -79 -39 5 -23 3 -30 -8 -30 -26 0 -226 220 -292 321 -35 54 -69
100 -75 104 -5 3 -10 13 -10 22 0 14 12 15 98 10 53 -4 216 -11 362 -18 228
-9 282 -8 383 5 l118 16 38 -40 c34 -36 40 -39 77 -33 21 3 49 15 62 26 23 21
30 71 12 82 -6 4 -3 16 7 31 12 19 13 28 4 33 -25 16 -54 87 -55 135 -1 66
-21 70 -46 12 -23 -55 -39 -64 -74 -40 -20 13 -38 15 -76 10 -42 -6 -99 5
-348 64 -163 39 -342 87 -397 107 -55 19 -129 43 -165 53 -35 10 -66 22 -68
29 -2 6 1 11 7 11 6 0 11 16 11 35 0 26 7 43 26 60 23 21 24 26 12 47 -9 16
-13 65 -13 163 l0 140 -37 3 c-36 3 -37 3 -43 -42 l-7 -46 -52 0 c-57 0 -166
12 -329 36 -100 15 -109 19 -118 42 -19 49 53 222 91 222 9 0 69 16 135 35 66
20 212 60 325 91 296 79 578 173 586 196 3 10 32 44 65 75 32 32 64 73 70 92
16 49 5 117 -30 185 -17 32 -31 71 -31 86 0 16 -8 36 -17 46 -16 16 -18 16
-28 -2 -23 -42 -68 -75 -92 -69 -23 5 -24 4 -18 -28 7 -38 -13 -90 -39 -100
-8 -3 -63 7 -123 23 -59 16 -120 30 -135 30 -16 0 -37 9 -48 20 -26 26 -46 25
-95 -5 -22 -14 -47 -25 -56 -25 -22 0 -271 77 -329 102 -65 28 -92 56 -79 80
18 34 1 65 -73 130 -200 174 -334 330 -410 474 -38 72 -47 117 -27 129 6 4 9
21 8 39 -1 17 1 41 5 53 4 14 1 31 -8 45 -8 13 -18 52 -22 88 -9 91 -17 103
-65 98 l-39 -4 0 46 c0 38 5 50 30 72 32 28 36 50 20 94 l-11 27 -22 -22 c-32
-29 -47 -26 -47 8 0 34 -9 61 -20 61 -4 0 -13 -13 -20 -30z m5 -588 c35 -78
135 -248 195 -330 l41 -57 -45 49 c-38 41 -48 48 -71 42 -17 -4 -31 -1 -41 9
-26 26 -60 18 -92 -21 -27 -32 -31 -34 -36 -17 -3 11 -20 40 -36 66 -33 53
-64 61 -95 27 l-18 -20 -14 20 c-17 24 -46 26 -63 5 -7 -8 -17 -15 -22 -15 -6
0 -47 -22 -92 -49 -44 -27 -107 -61 -138 -75 -32 -13 -58 -29 -58 -33 0 -5 62
-15 138 -21 155 -14 263 -35 454 -88 131 -36 316 -85 371 -98 22 -5 27 -3 27
11 0 10 -8 23 -19 30 -10 6 -29 27 -42 45 -16 22 6 6 64 -45 48 -43 115 -96
149 -118 34 -22 65 -43 68 -47 3 -4 16 -13 30 -19 l25 -12 -26 0 c-24 -1 -49
-17 -49 -32 0 -4 17 -5 38 -2 27 4 42 1 51 -10 18 -22 10 -51 -16 -55 -33 -5
-77 23 -160 99 -98 91 -149 116 -287 139 -61 11 -228 44 -371 74 -237 49 -262
53 -277 39 -25 -22 -22 -34 5 -28 37 10 77 -11 77 -39 0 -94 -76 -71 -231 71
-75 68 -124 93 -182 93 -86 0 -56 19 245 155 141 64 219 115 358 235 58 49
107 90 110 90 3 0 18 -31 35 -68z m-1297 -1352 c2 -25 7 -49 12 -54 6 -6 5
-15 -2 -24 -7 -7 -11 -33 -9 -57 2 -40 0 -45 -28 -59 -16 -9 -33 -16 -36 -16
-4 0 -3 29 0 65 8 74 6 75 -65 50 -99 -35 -139 -44 -134 -31 3 8 35 21 72 31
117 32 125 37 129 86 5 45 17 61 43 56 10 -1 16 -17 18 -47z m487 -129 c7 -72
0 -135 -15 -126 -16 10 -22 65 -9 81 9 12 9 19 -1 38 -13 25 -5 90 10 81 4 -3
11 -36 15 -74z m-759 52 c-10 -32 -26 -147 -26 -184 0 -23 -6 -39 -15 -42 -11
-5 -14 5 -14 51 0 74 29 192 47 192 8 0 11 -7 8 -17z m348 -49 c3 -26 6 -84 6
-130 0 -81 -1 -84 -23 -84 -24 0 -24 3 -31 122 -5 94 -4 123 6 130 26 16 35 7
42 -38z m194 11 c152 -22 182 -29 171 -39 -6 -6 -303 42 -331 53 -34 14 -19
13 160 -14z m622 3 c13 -34 32 -186 24 -199 -11 -18 -24 11 -25 61 l-2 45 -7
-55 -7 -55 -3 75 c-6 129 -6 150 2 150 5 0 13 -10 18 -22z m-1366 -35 c-4 -16
-11 -32 -15 -37 -5 -6 -9 -29 -9 -53 0 -53 -18 -141 -31 -149 -19 -12 -21 5
-6 53 8 26 18 79 21 117 5 65 17 96 37 96 5 0 6 -12 3 -27z m1753 -23 c7 -24
16 -79 19 -122 5 -73 5 -78 -13 -78 -17 0 -21 12 -31 94 -7 52 -12 109 -12
126 0 45 22 33 37 -20z m-595 19 c84 -12 157 -25 163 -30 12 -12 -19 -11 -168
2 -152 13 -167 16 -167 34 0 19 -10 19 172 -6z m-1032 -31 c0 -20 -9 -25 -65
-39 -64 -15 -66 -15 -63 4 2 12 19 26 48 38 62 25 80 24 80 -3z m1428 -9 c75
-11 141 -25 146 -30 21 -19 -8 -22 -92 -11 -143 21 -202 35 -202 49 0 16 -14
17 148 -8z m562 -20 c4 -13 10 -67 13 -119 5 -69 4 -91 -4 -83 -6 6 -11 41
-11 77 0 44 -4 69 -14 77 -17 14 -19 82 -2 77 7 -3 15 -15 18 -29z m-2321 -55
c-7 -8 -9 -29 -6 -52 9 -60 -5 -126 -27 -130 -17 -4 -18 0 -11 35 9 45 11 58
24 140 12 77 25 101 29 55 2 -18 -2 -40 -9 -48z m983 22 c89 -19 235 -44 323
-56 88 -12 267 -37 397 -55 130 -19 328 -46 440 -60 112 -14 304 -41 428 -60
236 -36 470 -60 498 -51 15 5 17 -6 18 -94 1 -88 -1 -100 -15 -96 -56 18 -345
59 -566 81 -143 14 -483 57 -755 95 -272 38 -565 79 -650 91 -132 18 -281 44
-367 64 -21 5 -23 2 -23 -35 0 -44 -19 -53 -51 -24 -16 14 -22 13 -78 -15 -33
-17 -103 -43 -153 -57 -380 -107 -1079 -329 -1149 -365 -48 -24 -49 -24 -49 5
0 22 28 38 105 61 6 1 10 28 10 58 l-1 56 67 30 c70 31 393 146 649 231 80 26
168 57 195 70 28 12 115 44 195 72 79 27 161 58 182 69 20 10 40 19 43 19 3 0
5 -33 5 -74 0 -82 5 -89 61 -77 l34 7 9 77 c7 56 13 77 22 73 7 -3 86 -20 176
-40z m-1092 -6 c0 -5 -9 -32 -20 -60 -11 -28 -20 -68 -20 -90 0 -59 -23 -109
-51 -110 -3 0 2 35 13 78 10 42 24 103 30 135 9 44 16 57 30 57 10 0 18 -4 18
-10z m250 -9 c0 -5 -24 -17 -52 -26 -29 -9 -59 -18 -66 -21 -8 -2 -12 3 -10
13 5 26 128 58 128 34z m2045 -4 c85 -9 110 -15 113 -28 2 -13 -6 -14 -80 -3
-46 6 -113 15 -150 19 -72 7 -95 26 -30 24 20 0 86 -6 147 -12z m319 -48 c17
-15 -19 -20 -84 -12 -38 5 -65 13 -68 21 -3 11 11 12 69 7 41 -4 78 -11 83
-16z m-2561 -26 c-9 -23 -23 -33 -50 -33 -29 0 -29 14 -1 34 31 22 59 21 51
-1z m-143 -53 c0 -8 -28 -18 -105 -36 -24 -5 -28 -4 -18 6 6 7 35 18 65 25 29
8 54 14 56 14 1 1 2 -3 2 -9z m3290 -75 c0 -31 -3 -35 -25 -35 -18 0 -25 5
-25 19 0 33 11 51 31 51 15 0 19 -7 19 -35z m-3905 -237 c-3 -13 1 -52 9 -88
17 -72 12 -110 -13 -110 -14 0 -16 14 -13 110 2 61 7 110 13 110 5 0 7 -10 4
-22z m135 -19 c-8 -5 -32 -19 -52 -29 -26 -14 -38 -28 -41 -47 -3 -21 -4 -17
-6 13 -1 40 0 41 47 56 56 19 72 21 52 7z m3599 -485 c-9 -10 -22 -14 -41 -10
-36 7 -58 -16 -58 -60 0 -27 -5 -35 -22 -39 -33 -7 -337 -33 -523 -45 -88 -6
-178 -15 -200 -20 -62 -15 -75 -13 -75 13 0 46 11 50 155 59 262 15 598 76
710 127 56 26 60 27 63 9 2 -11 -2 -26 -9 -34z m-1856 -726 c42 -6 77 -15 77
-19 0 -3 11 -22 24 -42 24 -35 24 -40 23 -236 0 -110 3 -204 7 -208 9 -9 324
-8 333 1 8 7 18 180 16 264 l-2 62 41 0 41 0 -7 -232 c-8 -314 -17 -461 -27
-474 -5 -7 -76 -13 -181 -17 -95 -4 -242 -10 -325 -14 l-153 -6 0 472 0 473
28 -6 c15 -3 62 -11 105 -18z m-293 -473 l0 -465 -69 0 -69 0 -7 113 c-4 61
-8 213 -8 337 l-2 225 -87 -3 -88 -2 0 69 c0 37 3 89 6 114 l6 45 82 12 c44 6
113 12 151 13 39 2 73 4 78 5 4 1 7 -207 7 -463z m-480 205 c0 -221 -1 -230
-18 -221 -15 8 -20 27 -25 90 -8 100 -27 148 -61 157 -15 3 -30 13 -35 21 -11
21 -41 9 -66 -25 -17 -23 -20 -43 -20 -129 0 -90 -2 -103 -18 -107 -13 -3 -18
-12 -15 -28 3 -22 6 -23 126 -26 93 -2 122 0 124 10 1 7 4 -61 8 -152 7 -218
8 -213 -44 -206 -22 3 -82 10 -132 17 l-91 11 -2 399 -2 398 23 6 c26 6 95 11
186 13 l62 2 0 -230z m-290 -134 c0 -335 0 -344 -20 -349 -20 -5 -20 0 -20
344 0 342 0 349 20 349 20 0 20 -7 20 -344z m-200 276 c0 -27 -3 -52 -7 -56
-5 -4 -6 -142 -4 -306 l3 -298 -33 -10 c-19 -6 -57 -12 -86 -15 l-52 -4 -3 96
c-2 53 0 166 5 251 5 85 7 205 5 267 l-3 112 70 4 c39 2 78 4 88 5 14 2 17 -6
17 -46z m68 -122 c2 -30 1 -79 -3 -107 -6 -47 -9 -53 -29 -53 -22 0 -23 4 -29
102 -6 108 -2 121 38 116 17 -3 21 -12 23 -58z m2088 -123 c-3 -12 -6 -46 -6
-74 l0 -53 -80 0 -80 0 0 59 c0 33 2 65 5 73 4 9 29 14 86 15 79 2 81 1 75
-20z m414 -51 l0 -74 -32 -5 c-18 -3 -63 -2 -100 0 -64 6 -66 7 -72 36 -3 16
-6 42 -6 57 0 27 1 27 74 33 41 3 83 10 93 16 38 22 43 14 43 -63z m-1832 42
c-5 -15 -98 -24 -98 -9 0 9 24 14 83 19 11 1 17 -3 15 -10z m2352 -13 c0 -12
19 -15 115 -15 l115 0 0 -95 0 -95 -144 0 -144 0 -4 98 c-3 78 -1 99 11 110
20 17 51 15 51 -3z m-190 -110 l0 -105 -95 0 -95 0 0 46 c0 29 5 51 15 58 8 6
20 29 27 51 13 39 14 40 68 46 30 3 61 6 68 7 9 2 12 -25 12 -103z m-2175 15
c3 -5 8 -39 12 -75 l6 -65 -57 0 -56 0 0 69 c0 64 2 70 23 74 41 8 66 7 72 -3z
m25 -265 c0 -25 -4 -45 -10 -45 -5 0 -10 20 -10 45 0 25 5 45 10 45 6 0 10
-20 10 -45z m2560 -69 l0 -93 -136 -7 c-75 -4 -138 -5 -141 -3 -2 3 -1 48 3
101 l7 96 133 0 134 0 0 -94z m-410 2 c0 -46 3 -93 6 -105 6 -21 3 -23 -37
-23 -24 0 -73 -5 -108 -10 -35 -6 -66 -9 -68 -6 -3 2 -2 54 2 115 l8 111 98 0
99 0 0 -82z m-2700 2 c0 -63 3 -64 168 -81 84 -9 122 -17 122 -25 0 -19 49
-54 76 -54 12 0 35 11 51 23 23 20 34 22 58 15 17 -4 90 -12 164 -18 114 -8
138 -13 156 -30 34 -32 88 -37 114 -11 11 11 21 28 21 36 0 10 10 15 28 15 15
0 157 7 316 16 226 13 306 14 370 6 44 -6 164 -16 266 -22 102 -6 244 -16 315
-22 193 -17 328 -15 550 6 218 21 433 24 765 11 l215 -8 -90 -18 c-49 -10
-151 -32 -225 -48 -264 -58 -334 -60 -820 -31 -317 19 -1039 24 -1450 9 -500
-18 -556 -17 -715 4 -444 59 -536 68 -960 92 -143 8 -341 20 -440 27 -160 11
-173 14 -115 19 36 4 160 10 275 14 138 5 219 12 237 20 24 11 34 11 67 -2 46
-18 91 -11 98 17 4 15 19 19 76 25 40 4 78 12 85 17 9 8 12 1 12 -28 0 -33 5
-42 35 -61 39 -26 71 -29 110 -11 23 10 25 16 25 74 0 58 5 70 33 73 4 1 7
-22 7 -49z m-1080 -119 c332 -25 434 -31 610 -41 278 -15 435 -28 650 -55 107
-13 227 -27 265 -30 104 -10 136 -22 130 -48 -9 -42 -25 -192 -25 -239 0 -29
-4 -48 -11 -48 -35 0 -1593 242 -1640 255 -30 8 -80 15 -111 15 -43 0 -59 5
-73 20 -17 19 -18 27 -7 90 6 38 9 77 5 86 -5 14 -1 16 28 11 19 -3 99 -11
179 -16z m3600 -141 c124 -6 299 -15 390 -20 150 -8 201 -7 298 5 l32 4 0
-158 0 -157 -57 3 c-32 2 -398 17 -813 33 -415 16 -800 32 -855 35 l-100 7 3
131 3 132 437 -2 c240 -2 538 -8 662 -13z"/>
<path d="M4540 6000 c-33 -8 -37 -36 -9 -66 29 -31 54 -30 75 1 13 21 14 28 4
41 -20 23 -43 31 -70 24z"/>
<path d="M4441 5916 c-15 -17 -5 -44 20 -51 24 -8 39 1 39 24 0 35 -38 53 -59
27z"/>
<path d="M4540 5880 c-15 -29 5 -90 29 -90 18 0 41 38 41 68 0 41 -51 57 -70
22z"/>
<path d="M4645 5865 c-3 -8 -7 -21 -9 -29 -10 -31 66 -64 77 -33 5 15 -11 48
-32 64 -21 17 -31 16 -36 -2z"/>
<path d="M4587 4475 c3 -38 7 -72 9 -74 7 -8 3 64 -6 104 -7 31 -7 24 -3 -30z"/>
<path d="M3472 4398 l3 -51 65 -14 c36 -7 70 -11 75 -9 6 2 11 28 10 57 0 61
-8 66 -103 68 l-53 1 3 -52z"/>
<path d="M3260 4402 c-8 -2 -31 -11 -50 -19 -19 -9 -46 -16 -60 -18 -37 -3
-134 -42 -138 -54 -2 -6 2 -27 8 -47 l12 -37 49 6 c27 3 62 12 77 19 23 12 27
20 26 53 l-2 39 16 -30 c8 -16 16 -30 17 -32 9 -10 75 13 80 27 9 28 -18 99
-35 93z"/>
<path d="M3689 4388 c-6 -11 -9 -33 -7 -51 3 -36 22 -44 105 -46 l51 -1 4 51
c1 29 -1 53 -7 55 -5 1 -38 4 -73 6 -54 4 -65 2 -73 -14z"/>
<path d="M3925 4371 c-26 -5 -30 -11 -33 -44 -5 -57 9 -67 94 -67 l74 0 0 50
c0 32 -5 52 -12 54 -27 9 -94 12 -123 7z"/>
<path d="M4082 4298 l3 -43 70 -12 c39 -6 75 -12 80 -12 6 -1 11 21 11 48 2
57 -3 61 -104 61 l-63 0 3 -42z"/>
<path d="M2898 4294 c-58 -18 -75 -43 -58 -85 14 -33 18 -34 90 -17 60 14 73
31 59 82 -11 41 -19 42 -91 20z"/>
<path d="M4287 4303 c-4 -3 -7 -23 -7 -43 l0 -37 53 -8 c97 -13 102 -13 102
15 0 14 4 31 9 39 15 24 -22 41 -89 41 -34 0 -65 -3 -68 -7z"/>
<path d="M4488 4279 c-13 -7 -17 -21 -16 -48 l1 -39 66 -10 c36 -6 69 -8 72
-4 4 4 4 24 2 45 -4 27 -11 41 -27 46 -41 15 -81 19 -98 10z"/>
<path d="M4678 4248 c-13 -10 -15 -21 -10 -48 8 -38 27 -47 100 -49 l42 -1 0
40 c0 44 -11 54 -75 64 -27 5 -46 3 -57 -6z"/>
<path d="M2712 4226 c-29 -8 -55 -16 -59 -19 -11 -12 13 -72 30 -75 9 -2 42 2
72 8 59 12 65 22 45 74 -11 29 -14 29 -88 12z"/>
<path d="M4863 4223 c-7 -2 -13 -20 -13 -39 0 -40 13 -48 80 -49 l45 0 -4 40
c-1 22 -8 43 -15 47 -12 9 -74 9 -93 1z"/>
<path d="M5016 4184 c-3 -9 -6 -26 -6 -38 0 -20 6 -24 52 -29 59 -7 68 -1 68
51 l0 32 -54 0 c-40 0 -55 -4 -60 -16z"/>
<path d="M2540 4178 c-48 -13 -59 -27 -53 -65 4 -28 10 -33 32 -33 30 0 89 16
110 29 10 6 12 19 7 45 -6 31 -11 36 -34 35 -15 0 -43 -5 -62 -11z"/>
<path d="M5155 4170 c-11 -18 3 -58 25 -70 10 -6 46 -13 80 -17 l61 -6 -7 44
c-4 24 -9 46 -11 49 -10 11 -141 12 -148 0z"/>
<path d="M5360 4115 c0 -51 2 -55 24 -55 13 0 45 -3 71 -7 47 -6 47 -6 39 18
-4 13 -9 37 -10 54 -1 33 -20 42 -86 44 l-38 1 0 -55z"/>
<path d="M5528 4125 c-7 -17 -8 -35 -2 -57 9 -30 14 -34 59 -39 28 -4 62 -10
78 -14 l27 -7 0 65 c0 74 -3 77 -98 77 -46 0 -54 -3 -64 -25z"/>
<path d="M2425 4135 c-5 -2 -29 -9 -51 -15 l-42 -10 6 -48 c2 -26 5 -48 6 -49
2 -3 51 12 94 28 22 9 30 47 16 83 -6 16 -10 18 -29 11z"/>
<path d="M2233 4084 c-53 -23 -53 -24 -53 -69 0 -50 1 -51 75 -32 l50 13 3 51
c4 63 -6 67 -75 37z"/>
<path d="M2085 4025 l-60 -23 -3 -46 c-3 -40 -1 -46 16 -46 29 0 105 29 114
43 10 15 10 97 1 96 -5 0 -35 -11 -68 -24z"/>
<path d="M3612 2668 c-31 -39 -21 -400 13 -438 23 -25 75 -26 105 -2 l22 18
-12 190 c-6 105 -10 201 -8 215 3 23 0 24 -53 27 -36 2 -60 -2 -67 -10z"/>
</g>
</svg>
